Coordinates
version=1
nRows=14
nColumns=24
inDegrees=yes

Units are S.I. units (second, meters, Newtons, ...)
Angles are in degrees.

endheader
time	pelvis_tilt	pelvis_list	pelvis_rotation	pelvis_tx	pelvis_ty	pelvis_tz	hip_flexion_r	hip_adduction_r	hip_rotation_r	knee_angle_r	ankle_angle_r	subtalar_angle_r	mtp_angle_r	hip_flexion_l	hip_adduction_l	hip_rotation_l	knee_angle_l	ankle_angle_l	subtalar_angle_l	mtp_angle_l	lumbar_extension	lumbar_bending	lumbar_rotation
      5.67000000	      6.46979857	      8.22342193	     10.08053118	      1.41322030	      0.72172344	     -0.26496117	     12.18881260	     -9.38916550	      9.60548749	      1.85816747	     -5.01757913	    -20.04163529	      0.00000000	    -24.26918787	      6.88429627	      8.20295765	    -16.59441799	     16.21409982	    -10.99594488	      0.00000000	    -28.12818421	     -2.92256470	    -16.37892460
      5.68000000	      6.73887016	      7.14659756	      9.83340973	      1.42737041	      0.72263324	     -0.26410141	     12.26519411	     -7.78924670	      9.70615818	     -0.30940195	     -6.89761496	    -21.79993186	      0.00000000	    -23.96350225	      5.82218852	      7.54230892	    -19.06442641	     14.15997272	    -11.89638644	      0.00000000	    -28.19137636	     -1.56906213	    -15.57039517
      5.69000000	      7.05181041	      5.95700423	      9.35115975	      1.44148858	      0.72400732	     -0.26308966	     12.43746445	     -5.97297227	      9.54194193	     -2.76671463	     -7.55132607	    -22.48568458	      0.00000000	    -23.39237212	      4.79090042	      6.42254225	    -21.92784165	     11.54972167	    -13.08342636	      0.00000000	    -28.33138730	     -0.16711120	    -14.52162181
      5.70000000	      7.30793718	      4.78033962	      8.70849111	      1.45552432	      0.72567238	     -0.26202452	     12.62456201	     -4.15104868	      9.53914092	     -5.19603810	     -7.31495036	    -22.80805943	      0.00000000	    -22.48761103	      3.91097912	      5.14375486	    -25.14614414	      8.16069516	    -14.92360054	      0.00000000	    -28.46450253	      1.15001948	    -13.36519117
      5.71000000	      7.49283382	      3.69315433	      7.96800440	      1.46943727	      0.72755818	     -0.26093608	     12.73689522	     -2.43212743	      9.67012558	     -7.41521210	     -6.28269222	    -22.73705324	      0.00000000	    -21.25493591	      3.19672383	      3.77074639	    -28.65663684	      4.02236371	    -17.35891046	      0.00000000	    -28.58311831	      2.31041402	    -12.21287279
      5.72000000	      7.69105649	      2.75995839	      7.17330696	      1.48318489	      0.72970977	     -0.25981350	     12.59848456	     -0.89418951	      9.91639397	     -9.27873783	     -4.68877545	    -22.23981549	      0.00000000	    -19.82621680	      2.63040461	      2.32312403	    -32.34554196	     -0.74872839	    -20.26078121	      0.00000000	    -28.78896360	      3.26029691	    -11.18338516
      5.73000000	      7.75376628	      2.00834736	      6.46999067	      1.49674638	      0.73189113	     -0.25873670	     12.27792267	      0.37809594	     10.29469592	    -10.63539234	     -2.91044767	    -21.86786336	      0.00000000	    -18.00450402	      2.17148302	      0.92286681	    -36.24698574	     -5.73988272	    -23.30240972	      0.00000000	    -28.87560841	      3.97924575	    -10.32341766
      5.74000000	      7.74116778	      1.45635932	      5.91728263	      1.51007864	      0.73413771	     -0.25773224	     11.73183963	      1.36488925	     10.77134470	    -11.52148145	     -1.22017252	    -21.59806336	      0.00000000	    -15.91339521	      1.80911551	     -0.30697477	    -40.21180925	    -10.73442727	    -26.43503118	      0.00000000	    -28.89588987	      4.47991737	     -9.76502655
      5.75000000	      7.69296429	      1.10449924	      5.55052557	      1.52315889	      0.73643288	     -0.25686057	     10.97184504	      2.05418644	     11.18778505	    -12.00700804	      0.34253324	    -21.41923254	      0.00000000	    -13.63155411	      1.54917884	     -1.30802809	    -44.14901145	    -15.40448681	    -29.52598802	      0.00000000	    -28.88008085	      4.78315228	     -9.47039572
      5.76000000	      7.58733081	      0.93601159	      5.38575142	      1.53599939	      0.73873043	     -0.25615858	     10.03702370	      2.44997030	     11.45185297	    -12.09212012	      1.73228012	    -21.26363799	      0.00000000	    -11.17338110	      1.37880858	     -2.12119942	    -47.95919327	    -19.42377117	    -32.42382004	      0.00000000	    -28.78555774	      4.91167179	     -9.45318541
      5.77000000	      7.43255857	      0.90776630	      5.38301831	      1.54859978	      0.74098703	     -0.25561736	      9.00138569	      2.61853592	     11.54627216	    -11.90563834	      2.96473686	    -21.11253848	      0.00000000	     -8.59952025	      1.30939650	     -2.75058524	    -51.54058439	    -22.52699766	    -34.96751953	      0.00000000	    -28.62198496	      4.89940276	     -9.61731125
      5.78000000	      7.26223354	      0.96272953	      5.46950130	      1.56098157	      0.74320928	     -0.25520658	      7.87373066	      2.63781269	     11.46103184	    -11.50417949	      4.08281323	    -20.82623118	      0.00000000	     -5.99378333	      1.31765888	     -3.27723910	    -54.80204476	    -24.57033489	    -37.00476721	      0.00000000	    -28.43855401	      4.79879642	     -9.83695229
      5.79000000	      7.03331236	      1.09429921	      5.58368512	      1.57315168	      0.74529640	     -0.25487922	      6.75691772	      2.53635620	     11.27900803	    -10.98551295	      5.11972709	    -20.49007536	      0.00000000	     -3.34100375	      1.43209303	     -3.75464678	    -57.68892290	    -25.35068045	    -38.34195998	      0.00000000	    -28.19581461	      4.59620055	    -10.10966825
      5.80000000	      6.78114767	      1.22768419	      5.64057289	      1.58516345	      0.74724601	     -0.25454937	      5.59770192	      2.41531949	     11.18522287	    -10.30858762	      5.89224554	    -20.30113595	      0.00000000	     -0.70268893	      1.58125723	     -4.25958155	    -60.16322306	    -24.92668838	    -38.79085889	      0.00000000	    -27.93849840	      4.34586006	    -10.24883530
